{
    "asset" : {
        "generator" : "Khronos glTF Blender I/O v1.1.45",
        "version" : "2.0"
    },
    "scene" : 0,
    "scenes" : [
        {
            "name" : "Scene",
            "nodes" : [
                0,
                1,
                2,
                3
            ]
        }
    ],
    "nodes" : [
        {
            "name" : "Sun",
            "rotation" : [
                -0.22600531578063965,
                -0.04216628521680832,
                -0.2678251564502716,
                0.9356352090835571
            ],
            "translation" : [
                -0.41280514001846313,
                5.412505149841309,
                -17.906810760498047
            ]
        },
        {
            "mesh" : 0,
            "name" : "Suzanne",
            "translation" : [
                0,
                1.4068880081176758,
                0
            ]
        },
        {
            "mesh" : 1,
            "name" : "Cube",
            "translation" : [
                0,
                0,
                -3.469888687133789
            ]
        },
        {
            "mesh" : 2,
            "name" : "Cube.001",
            "translation" : [
                -0.03781124949455261,
                0.08827265352010727,
                0.0720696747303009
            ]
        }
    ],
    "materials" : [
        {
            "doubleSided" : true,
            "emissiveFactor" : [
                0,
                0,
                0
            ],
            "name" : "Monkey",
            "pbrMetallicRoughness" : {
                "baseColorFactor" : [
                    0.8000000715255737,
                    0,
                    0.0023412921000272036,
                    1
                ],
                "metallicFactor" : 0,
                "roughnessFactor" : 0.5
            }
        },
        {
            "doubleSided" : true,
            "emissiveFactor" : [
                0,
                0,
                0
            ],
            "name" : "Glass",
            "pbrMetallicRoughness" : {
                "baseColorFactor" : [
                    0.8000004887580872,
                    0.8000004887580872,
                    0.8000004887580872,
                    0.5
                ],
                "metallicFactor" : 0,
                "roughnessFactor" : 0
            }
        }
    ],
    "meshes" : [
        {
            "name" : "Suzanne.001",
            "primitives" : [
                {
                    "attributes" : {
                        "POSITION" : 0,
                        "NORMAL" : 1,
                        "TEXCOORD_0" : 2
                    },
                    "indices" : 3,
                    "material" : 0
                }
            ]
        },
        {
            "name" : "Cube.004",
            "primitives" : [
                {
                    "attributes" : {
                        "POSITION" : 4,
                        "NORMAL" : 5,
                        "TEXCOORD_0" : 6
                    },
                    "indices" : 7,
                    "material" : 1
                }
            ]
        },
        {
            "name" : "Cube.005",
            "primitives" : [
                {
                    "attributes" : {
                        "POSITION" : 8,
                        "NORMAL" : 9,
                        "TEXCOORD_0" : 10
                    },
                    "indices" : 7,
                    "material" : 1
                }
            ]
        }
    ],
    "accessors" : [
        {
            "bufferView" : 0,
            "componentType" : 5126,
            "count" : 10457,
            "max" : [
                1.328185796737671,
                0.9392361640930176,
                0.8224414587020874
            ],
            "min" : [
                -1.328185796737671,
                -0.971822202205658,
                -0.7782661318778992
            ],
            "type" : "VEC3"
        },
        {
            "bufferView" : 1,
            "componentType" : 5126,
            "count" : 10457,
            "type" : "VEC3"
        },
        {
            "bufferView" : 2,
            "componentType" : 5126,
            "count" : 10457,
            "type" : "VEC2"
        },
        {
            "bufferView" : 3,
            "componentType" : 5123,
            "count" : 47232,
            "type" : "SCALAR"
        },
        {
            "bufferView" : 4,
            "componentType" : 5126,
            "count" : 24,
            "max" : [
                3,
                3.448296070098877,
                1.8792321681976318
            ],
            "min" : [
                -3,
                -0.5517040491104126,
                1.679232120513916
            ],
            "type" : "VEC3"
        },
        {
            "bufferView" : 5,
            "componentType" : 5126,
            "count" : 24,
            "type" : "VEC3"
        },
        {
            "bufferView" : 6,
            "componentType" : 5126,
            "count" : 24,
            "type" : "VEC2"
        },
        {
            "bufferView" : 7,
            "componentType" : 5123,
            "count" : 36,
            "type" : "SCALAR"
        },
        {
            "bufferView" : 8,
            "componentType" : 5126,
            "count" : 24,
            "max" : [
                3,
                3.448296070098877,
                1.8792321681976318
            ],
            "min" : [
                -3,
                -0.5517040491104126,
                1.679232120513916
            ],
            "type" : "VEC3"
        },
        {
            "bufferView" : 9,
            "componentType" : 5126,
            "count" : 24,
            "type" : "VEC3"
        },
        {
            "bufferView" : 10,
            "componentType" : 5126,
            "count" : 24,
            "type" : "VEC2"
        }
    ],
    "bufferViews" : [
        {
            "buffer" : 0,
            "byteLength" : 125484,
            "byteOffset" : 0
        },
        {
            "buffer" : 0,
            "byteLength" : 125484,
            "byteOffset" : 125484
        },
        {
            "buffer" : 0,
            "byteLength" : 83656,
            "byteOffset" : 250968
        },
        {
            "buffer" : 0,
            "byteLength" : 94464,
            "byteOffset" : 334624
        },
        {
            "buffer" : 0,
            "byteLength" : 288,
            "byteOffset" : 429088
        },
        {
            "buffer" : 0,
            "byteLength" : 288,
            "byteOffset" : 429376
        },
        {
            "buffer" : 0,
            "byteLength" : 192,
            "byteOffset" : 429664
        },
        {
            "buffer" : 0,
            "byteLength" : 72,
            "byteOffset" : 429856
        },
        {
            "buffer" : 0,
            "byteLength" : 288,
            "byteOffset" : 429928
        },
        {
            "buffer" : 0,
            "byteLength" : 288,
            "byteOffset" : 430216
        },
        {
            "buffer" : 0,
            "byteLength" : 192,
            "byteOffset" : 430504
        }
    ],
    "buffers" : [
        {
            "byteLength" : 430696,
            "uri" : "data:application/octet-stream;base64,"
        }
    ]
}
